<svg width="13" height="13" viewBox="0 0 13 13" fill="none" xmlns="http://www.w3.org/2000/svg">
<path d="M11.742 8.27501C12.3579 6.50909 12.5173 4.61612 12.2007 2.77267C12.1124 2.19552 11.8411 1.66144 11.4276 1.24795C11.0141 0.83447 10.48 0.563122 9.90289 0.474826C8.05945 0.158253 6.16432 0.315462 4.3984 0.93138C2.68632 1.51499 1.3425 2.85881 0.761041 4.57089C0.356172 5.74027 0.147277 6.96995 0.149431 8.2061C0.149431 8.79186 0.218344 9.67052 0.332483 10.2111C0.440161 10.7365 0.698588 11.2168 1.07761 11.5958C1.45664 11.9748 1.93688 12.2332 2.46235 12.3409C3.00289 12.4572 3.88155 12.524 4.46731 12.524C5.70561 12.5261 6.93314 12.3172 8.10252 11.9102C9.8146 11.3288 11.1584 9.98494 11.742 8.27501Z" fill="#C1F20D"/>
<path d="M1.91315 9.50475C1.60949 9.50475 1.308 9.39276 1.23047 9.37338L1.32307 8.8996C1.3683 8.92544 1.42214 8.94267 1.47167 8.9599C1.66333 9.0245 1.86146 9.05035 2.0639 9.02666C2.12635 9.0202 2.21464 9.00512 2.24264 8.93836C2.27494 8.85868 2.09405 8.79622 2.01221 8.77038C1.77101 8.69931 1.42644 8.53565 1.39845 8.29229C1.37906 8.12001 1.42644 7.93696 1.63318 7.81851C1.75809 7.74744 1.91745 7.70222 2.0962 7.69791C2.13066 7.69791 2.16727 7.6936 2.20388 7.6936C2.3697 7.6936 2.52045 7.71729 2.62597 7.73667C2.70781 7.7496 2.83487 7.78621 2.87579 7.80128L2.75949 8.19969C2.75949 8.19969 2.58506 8.11785 2.34601 8.10278C2.27925 8.09847 2.21034 8.10063 2.14358 8.10924C2.07466 8.11785 1.94545 8.1437 1.97345 8.24276C2.00144 8.34183 2.14142 8.36121 2.22326 8.38705C2.33955 8.42581 2.45584 8.46888 2.56137 8.53134C2.58936 8.54857 2.61521 8.5658 2.64105 8.58518C2.71642 8.64117 2.78534 8.72516 2.80472 8.81991C2.82195 8.90606 2.81764 9.00512 2.78964 9.08911C2.67766 9.45952 2.19311 9.50475 1.91315 9.50475Z" fill="white"/>
<path d="M9.40316 9.55212C9.16196 9.55212 8.95953 9.48106 8.79801 9.34323C8.63649 9.20971 8.5482 9.02666 8.52881 8.80915C8.50512 8.49473 8.58911 8.22984 8.77863 8.0231C8.98321 7.80344 9.25026 7.6936 9.57975 7.6936H9.59052C9.82095 7.6936 10.0255 7.76683 10.1914 7.90465C10.3486 8.03602 10.4369 8.21477 10.4541 8.43874C10.4778 8.75531 10.3938 9.01804 10.2043 9.22909C10.0105 9.44445 9.73696 9.55212 9.40316 9.55212ZM9.54314 8.17385C9.39024 8.17385 9.26533 8.24707 9.1878 8.3849C9.11889 8.50334 9.09089 8.63686 9.10381 8.779C9.10812 8.85653 9.14473 8.92544 9.20072 8.98359C9.26102 9.04388 9.34071 9.07403 9.43762 9.07403H9.44192C9.59052 9.07403 9.71973 8.99651 9.79726 8.85868C9.87479 8.72516 9.90709 8.5981 9.89202 8.44304C9.86617 8.28368 9.76065 8.17385 9.54314 8.17385Z" fill="white"/>
<path d="M5.33736 9.45734L5.48165 8.52485C5.50103 8.41071 5.48165 8.32242 5.44073 8.27289C5.39981 8.22551 5.33736 8.20397 5.25122 8.19966H5.2426C4.98848 8.19966 4.8808 8.39133 4.83343 8.55716L4.68914 9.45734H4.14429L4.41564 7.77326H4.96049L4.94541 7.87232L4.96695 7.85294C5.07893 7.77111 5.26414 7.71942 5.43858 7.71942C5.74869 7.71942 5.9705 7.86586 6.03511 8.11783C6.0588 8.21905 6.06311 8.32888 6.04373 8.44302L5.88221 9.45734H5.33736Z" fill="white"/>
<path d="M7.52526 9.45734L7.66955 8.52485C7.68893 8.41071 7.67385 8.32888 7.62863 8.27289C7.59202 8.22766 7.52741 8.20397 7.43912 8.19966H7.42835C7.17423 8.19966 7.06655 8.39133 7.02133 8.55716L6.87488 9.45734L6.32788 9.45303L6.60569 7.77111H7.14623L7.12685 7.87232L7.15485 7.85294C7.26683 7.77111 7.44988 7.71942 7.62648 7.71942C7.93659 7.71942 8.1584 7.86586 8.22301 8.11783C8.24455 8.21905 8.25101 8.32888 8.23163 8.44302L8.07011 9.45734H7.52526Z" fill="white"/>
<path d="M3.13208 9.45734L3.39912 7.77325H3.94612L3.67478 9.45734H3.13208Z" fill="white"/>
<path d="M4.21108 7.15301C4.2563 7.02164 4.26922 6.88166 4.24553 6.74599C4.23907 6.70292 4.21969 6.66415 4.18739 6.634C4.15724 6.60385 4.11632 6.58232 4.07325 6.57586C3.93757 6.55217 3.79544 6.56509 3.66623 6.61031C3.53917 6.65338 3.4401 6.75245 3.39703 6.87951C3.36688 6.96565 3.35181 7.0561 3.35181 7.1487C3.35181 7.19177 3.35611 7.25638 3.36473 7.2973C3.37334 7.33606 3.39272 7.37267 3.42072 7.40067C3.44872 7.42866 3.48533 7.44805 3.52409 7.45666C3.56501 7.46527 3.62962 7.46958 3.67269 7.46958C3.76529 7.46958 3.85574 7.45451 3.94188 7.42436C4.06679 7.38129 4.16585 7.28007 4.21108 7.15301Z" fill="white"/>
</svg>
