<svg xmlns="http://www.w3.org/2000/svg" width="114" height="40" viewBox="0 0 114 40" fill="none">
  <path d="M67.2534 31.0503L67.0635 32.3797H72.1198L72.3097 31.0503H67.2534Z" fill="#151515"/>
  <path d="M45.1029 30.3616L45.364 28.9136H40.9011L40.6162 30.3616H41.6607L39.7142 33.9462H40.6637L39.6904 39.3349H42.4916C43.0376 39.3349 43.5124 38.9313 43.6311 38.3853L44.6993 32.4981H42.3254L43.4649 30.3616H45.0791H45.1029ZM43.0376 33.8275L42.278 38.0055H41.4234L42.183 33.8275H43.0376Z" fill="#151515"/>
  <path d="M38.8367 30.9317H35.086L35.4184 28.5815H33.4006L33.0682 30.9317H29.2463C29.0564 30.9317 28.8902 31.0741 28.8665 31.264L28.178 35.8931C28.1543 36.1305 28.3205 36.3441 28.5579 36.3441H32.2611L31.7388 39.9999H33.3293C33.5667 39.9999 33.7804 39.81 33.8279 39.5726L34.3026 36.3441H37.5074C38.0771 36.3441 38.5519 35.9168 38.6468 35.3471L39.2403 31.359C39.264 31.1216 39.0979 30.9079 38.8605 30.9079M32.4985 34.896H30.0059L30.3857 32.2373H32.8783L32.4985 34.896ZM37.0801 34.5637C37.0563 34.7536 36.8902 34.896 36.7002 34.896H34.5163L34.8961 32.2373H37.4124L37.0801 34.5637Z" fill="#151515"/>
  <path d="M65.3759 36.7722L66.0406 37.9116C66.0406 37.9116 67.1563 37.5793 67.8922 36.606C68.3433 36.0125 68.6519 35.3953 68.7943 34.5407H69.4352L69.1741 36.155C69.1029 36.5585 69.0079 37.057 69.3878 37.3894C69.5777 37.5793 69.8625 37.6742 70.2424 37.6742H71.0732C71.453 37.6742 71.7854 37.5555 71.999 37.2944C72.2127 37.0333 72.4026 36.5823 72.5688 35.8701V35.8226L71.453 35.3241V35.3953C71.3581 35.7751 71.2394 36.2974 71.1919 36.3686C71.097 36.511 70.7884 36.4398 70.6459 36.4398C70.5984 36.4398 70.5272 36.4398 70.5035 36.3686C70.5035 36.3211 70.5035 36.2737 70.5035 36.2262L70.7884 34.5407H72.4263L72.6162 33.1876H66.3729L66.183 34.5407H67.3937C67.2988 35.1579 67.0376 35.5378 66.7528 35.8938C66.4442 36.2737 65.3997 36.7722 65.3997 36.7722" fill="#151515"/>
  <path d="M62.148 28.9138H54.3854C54.1955 28.9138 54.0293 29.0562 54.0056 29.2462L53.3171 33.9702H60.8661C61.4358 33.9702 61.9106 33.5429 62.0055 32.9731L62.5278 29.3649C62.5515 29.1275 62.3853 28.9138 62.148 28.9138ZM60.6049 32.3797C60.6049 32.4984 60.4862 32.5933 60.3675 32.5933H54.9551L55.0501 32.0236H60.6761V32.1898L60.6287 32.4034L60.6049 32.3797ZM60.8186 30.9316H55.1925L55.2874 30.3144H60.9135L60.8186 30.9316Z" fill="#151515"/>
  <path d="M55.2649 30.29L55.1699 30.931H60.8197H55.1699L55.2649 30.29Z" fill="#151515"/>
  <path d="M55.0246 31.9995L54.9297 32.5692L55.0246 31.9995H60.6507L60.627 32.1657L60.6507 31.9995H55.0246Z" fill="#151515"/>
  <path d="M55.2646 30.29H60.8907L60.8195 30.931L60.8907 30.29H55.2646Z" fill="#151515"/>
  <path d="M57.9913 37.7912H61.291L61.4809 36.5567H58.1812L58.2761 35.9395H61.9082L62.0981 34.5627H58.466L58.5135 34.2778H56.8281L56.7806 34.5627H54.5254L54.6441 34.3016H53.1723L52.0328 36.533H53.5046L53.8133 35.9158H56.5669L56.472 36.533H53.5284L53.3385 37.7674H56.2821L56.1871 38.3609H51.5818L51.3682 39.7377H61.2435C61.8132 39.7377 62.288 39.3342 62.3829 38.7645L62.4542 38.3372H57.8963L57.9913 37.7437V37.7912Z" fill="#151515"/>
  <path d="M51.6788 30.3616L51.9637 28.9136H45.9103L45.6492 30.3616H46.4325L45.9815 33.1865H45.0557L44.7708 34.6583H45.6492C45.2931 36.2488 44.7946 38.1005 44.1299 39.7622H45.8865C46.4325 38.3853 46.9073 36.4388 47.2871 34.6583H48.7352L47.9993 39.7622H49.6135L50.3494 34.6583H51.2752L51.5126 33.1865H50.5631L50.9666 30.3616H51.7025H51.6788ZM48.9251 33.1865H47.5483L48.023 30.3616H49.3287L48.9251 33.1865Z" fill="#151515"/>
  <path d="M75.0618 28.9136H65.1152C64.9253 28.9136 64.7591 29.056 64.7354 29.2459L63.1924 39.7622H64.7829L66.1597 30.3142H73.7086L72.5692 38.053C72.5455 38.2429 72.3793 38.3853 72.1894 38.3853H65.4001L65.1864 39.7622H72.9015C73.4713 39.7622 73.9698 39.3349 74.041 38.7889L75.4178 29.3646C75.4416 29.1272 75.2754 28.9136 75.038 28.9136" fill="#151515"/>
  <path d="M113.543 2.25518C113.068 1.8991 112.499 1.66171 111.905 1.5905C111.644 1.0445 111.241 0.593467 110.766 0.237386C110.552 0.0949536 110.315 0 110.054 0C109.792 0 109.555 0.0712149 109.341 0.237386C108.843 0.569728 108.463 1.0445 108.202 1.5905C107.609 1.66171 107.039 1.8991 106.564 2.25518C106.35 2.39761 106.208 2.61126 106.113 2.87239C106.042 3.10977 106.042 3.3709 106.113 3.60829C106.279 4.17802 106.612 4.70027 107.039 5.10383C106.944 5.6973 106.968 6.29076 107.157 6.86049C107.229 7.09788 107.395 7.31153 107.609 7.4777C107.822 7.62013 108.06 7.71509 108.321 7.71509H108.368C108.962 7.71509 109.531 7.57266 110.03 7.28779C110.552 7.57266 111.122 7.71509 111.692 7.71509H111.739C112 7.71509 112.238 7.64387 112.451 7.4777C112.665 7.31153 112.807 7.12162 112.879 6.88423C113.068 6.3145 113.116 5.72104 113.021 5.12757C113.021 5.12757 113.021 5.12757 113.021 5.10383C113.448 4.70027 113.781 4.17802 113.947 3.60829C114.018 3.3709 114.018 3.10977 113.947 2.87239C113.876 2.635 113.709 2.42135 113.519 2.27892" fill="#C1F20D"/>
  <path d="M4.20176 4.51002C3.01482 4.96105 1.94658 5.83939 1.51928 7.0738C1.02076 8.49813 1.23442 10.1361 2.18397 11.323C3.01482 12.3913 4.24923 12.9135 5.36496 13.6494C6.0059 14.053 6.52815 14.5515 6.55189 15.3586C6.57563 16.0708 6.14833 16.6643 5.48365 16.8779C4.13054 17.3052 1.92284 16.6643 0.451035 15.6672L0 18.6583C1.97032 19.6553 4.41541 20.0589 6.59937 19.4892C7.95248 19.1568 9.21063 18.3734 9.78036 17.0441C10.2314 15.9996 10.2789 14.7652 9.87532 13.7207C9.56671 12.8898 8.94951 12.2014 8.26109 11.6554C7.54892 11.0856 6.7418 10.6821 6.0059 10.1598C5.29374 9.66133 4.6528 8.83047 4.9614 7.9284C5.10383 7.47736 5.57861 7.09754 6.02964 6.97885C7.52518 6.52781 9.56672 7.23998 10.4451 7.76223L10.9436 4.96106C9.0682 4.03525 6.05338 3.84534 4.2255 4.5575" fill="#151515"/>
  <path d="M11.8936 19.6083H15.3832L16.9974 8.49854H13.5315L11.8936 19.6083Z" fill="#151515"/>
  <path d="M42.8238 8.97253C42.3253 8.45028 41.6131 8.21289 40.7111 8.21289C40.3312 8.21289 39.9514 8.28411 39.5716 8.4028C39.1918 8.52149 38.8357 8.71141 38.4796 8.92506C38.1473 9.1387 37.8149 9.39983 37.5063 9.68469C37.1977 9.96956 36.9366 10.3019 36.6992 10.6342H36.6517C36.6517 10.6342 36.6517 10.4681 36.6755 10.3019C36.6755 10.1357 36.6992 9.96956 36.7229 9.75591C36.7467 9.54226 36.7467 9.35235 36.7704 9.11497C36.7704 8.90132 36.7704 8.68767 36.7942 8.47402H33.4707C33.4707 8.66393 33.447 8.87758 33.4233 9.1387C33.3995 9.39983 33.3758 9.68469 33.3283 9.9933C33.3046 10.3019 33.2571 10.6342 33.2096 10.9666C33.1621 11.2989 33.1147 11.6313 33.0672 11.9636L31.8328 19.5837H35.3224L36.1295 14.1001C36.2007 13.6965 36.3194 13.293 36.5093 12.8894C36.6992 12.4859 36.9366 12.1535 37.1977 11.8449C37.4588 11.5363 37.7437 11.2989 38.0523 11.109C38.3609 10.9191 38.6695 10.8242 38.9544 10.8242C39.3105 10.8242 39.5716 10.9191 39.7615 11.1328C39.9514 11.3464 40.0464 11.6075 40.0701 11.9636C40.0701 12.106 40.0701 12.2722 40.0464 12.5333C40.0226 12.7707 39.0256 19.5837 39.0256 19.5837H42.4677C42.4677 19.5837 43.536 12.3197 43.5597 12.1298C43.5597 11.9399 43.6072 11.75 43.6072 11.5601C43.6072 11.3701 43.6072 11.2277 43.6072 11.1328C43.5597 10.2069 43.2748 9.49479 42.7763 8.97253" fill="#151515"/>
  <path d="M29.5301 8.97253C29.0316 8.45028 28.3194 8.21289 27.4174 8.21289C27.0375 8.21289 26.6577 8.28411 26.2779 8.4028C25.8981 8.52149 25.542 8.71141 25.1859 8.92506C24.8536 9.1387 24.5212 9.39983 24.2126 9.68469C23.904 9.96956 23.6429 10.3019 23.4055 10.6342H23.358C23.358 10.6342 23.358 10.4681 23.3818 10.3019C23.3818 10.1357 23.4055 9.96956 23.4292 9.75591C23.453 9.54226 23.453 9.35235 23.4767 9.11497C23.4767 8.90132 23.5005 8.68767 23.5005 8.47402H20.177C20.177 8.66393 20.1533 8.87758 20.1296 9.1387C20.1058 9.39983 20.0821 9.68469 20.0346 9.9933C20.0109 10.3019 19.9634 10.6342 19.9159 10.9666C19.8684 11.2989 19.821 11.6313 19.7735 11.9636L18.5391 19.5837H22.0287L22.8358 14.1001C22.907 13.6965 23.0257 13.293 23.2156 12.8894C23.4055 12.4859 23.6429 12.1535 23.904 11.8449C24.1651 11.5363 24.45 11.2989 24.7586 11.109C25.0672 10.9191 25.3758 10.8242 25.6607 10.8242C26.0168 10.8242 26.2779 10.9191 26.4678 11.1328C26.6577 11.3464 26.7527 11.6075 26.7764 11.9636C26.7764 12.106 26.7764 12.2722 26.7527 12.5333C26.7289 12.7707 25.7319 19.5837 25.7319 19.5837H29.174C29.174 19.5837 30.2423 12.3197 30.266 12.1298C30.266 11.9399 30.2897 11.75 30.3135 11.5601C30.3135 11.3701 30.3135 11.2277 30.3135 11.1328C30.266 10.2069 29.9811 9.49479 29.4826 8.97253" fill="#151515"/>
  <path d="M15.6453 3.15771C14.6245 3.15771 13.8174 3.98857 13.8174 4.9856C13.8174 5.98263 14.6482 6.81348 15.6453 6.81348C16.6423 6.81348 17.4731 5.98263 17.4731 4.9856C17.4731 3.98857 16.6423 3.15771 15.6453 3.15771Z" fill="#151515"/>
  <path d="M56.2143 10.9666C55.9769 10.3969 55.6208 9.89834 55.1935 9.49478C54.7662 9.09123 54.2439 8.78262 53.6267 8.54524C53.0095 8.33159 52.3211 8.21289 51.5615 8.21289C50.8018 8.21289 50.0659 8.30785 49.4487 8.49776C48.8315 8.68767 48.2855 8.94879 47.8107 9.30487C47.336 9.63722 46.9324 10.0408 46.6001 10.4918C46.2677 10.9428 46.0066 11.4176 45.8167 11.9399C45.6268 12.4621 45.4843 12.9844 45.4131 13.5304C45.3419 14.0764 45.3182 14.6224 45.3419 15.1683C45.3894 15.833 45.5081 16.4502 45.7455 17.02C45.9829 17.5897 46.2915 18.0882 46.7188 18.5155C47.1461 18.9428 47.6683 19.2751 48.2855 19.5125C48.9027 19.7499 49.6386 19.8686 50.4695 19.8686C51.3003 19.8686 52.0125 19.7737 52.6297 19.56C53.2469 19.3464 53.8166 19.0852 54.2677 18.7292C54.7425 18.3968 55.1223 17.9695 55.4546 17.5185C55.7632 17.0674 56.0244 16.5689 56.2143 16.0467C56.4042 15.5244 56.5229 15.0022 56.5941 14.4562C56.6653 13.9102 56.689 13.3879 56.6653 12.8657C56.6178 12.1535 56.4754 11.5126 56.238 10.9428M53.1282 14.4562C53.0333 14.9784 52.8908 15.4295 52.6534 15.833C52.4398 16.2366 52.1549 16.5689 51.7989 16.8301C51.4665 17.0912 51.0392 17.2099 50.5882 17.2099C50.1371 17.2099 49.6861 17.02 49.3538 16.6639C49.0214 16.3078 48.8315 15.7855 48.8078 15.1446C48.784 14.6223 48.8078 14.1238 48.9027 13.6016C48.9977 13.0793 49.1639 12.6283 49.3775 12.2247C49.5911 11.8212 49.876 11.4651 50.2321 11.204C50.5644 10.9428 50.968 10.8242 51.419 10.8242C51.6802 10.8242 51.9175 10.8716 52.1312 10.9903C52.3448 11.0853 52.511 11.2277 52.6772 11.4176C52.8196 11.6075 52.9383 11.8212 53.0333 12.0823C53.1282 12.3434 53.1757 12.6283 53.1994 12.9132C53.2232 13.4354 53.1994 13.9577 53.1045 14.4562" fill="#151515"/>
  <path d="M69.8173 12.3434C69.7699 11.6787 69.6987 11.109 69.5087 10.5868C69.3188 10.0883 69.0577 9.63722 68.7491 9.30488C68.4405 8.94879 68.0607 8.68767 67.6571 8.49776C67.2298 8.30785 66.7788 8.21289 66.2803 8.21289C65.853 8.21289 65.4732 8.26037 65.1171 8.37907C64.761 8.49776 64.4287 8.64019 64.1438 8.8301C63.8589 9.02001 63.6215 9.23366 63.3841 9.49478C63.1468 9.75591 63.0043 10.0645 62.8144 10.3494H62.7669C62.7669 10.3494 62.7669 10.112 62.7907 9.92208C62.7907 9.75591 62.8144 9.566 62.8382 9.39983C62.8382 9.20992 62.8382 9.04375 62.8619 8.87758C62.8619 8.71141 62.8619 8.56897 62.8619 8.45028H59.396C59.396 8.66393 59.396 8.92505 59.3723 9.2574C59.3486 9.58974 59.3248 9.92208 59.2773 10.2544C59.2536 10.6105 59.2061 10.9428 59.1824 11.2752C59.1349 11.6075 59.1112 11.8924 59.0874 12.106L57.0459 24.6638H60.5118L61.2477 19.56C61.5088 19.6312 61.8649 19.7262 62.1972 19.7737C62.5533 19.8211 62.8619 19.8449 63.1468 19.8449C63.9301 19.8449 64.6423 19.7499 65.2832 19.5363C65.9242 19.3226 66.4939 19.0615 66.9924 18.7054C67.4909 18.3493 67.9182 17.922 68.2981 17.4473C68.6779 16.9725 68.9628 16.4502 69.1764 15.8805C69.4138 15.3108 69.5562 14.741 69.6512 14.1238C69.7461 13.5066 69.8173 12.9132 69.7936 12.296M66.1616 14.4562C66.0191 15.0259 65.8055 15.5244 65.4969 15.9755C65.212 16.4028 64.8559 16.7588 64.4049 17.02C63.9776 17.2811 63.5028 17.4235 62.9569 17.4235C62.8619 17.4235 62.7432 17.4235 62.6245 17.4235C62.5058 17.4235 62.3871 17.3998 62.2447 17.376C62.126 17.376 61.9836 17.3523 61.8649 17.3286C61.7462 17.3286 61.6512 17.2811 61.5563 17.2574L61.9836 14.7173C62.0548 14.2663 62.1497 13.8152 62.2922 13.3405C62.4346 12.8894 62.6245 12.4621 62.8382 12.0823C63.0518 11.7025 63.3367 11.4176 63.6453 11.1802C63.9539 10.9428 64.31 10.8242 64.7135 10.8242C64.9984 10.8242 65.212 10.8716 65.4019 10.9666C65.5918 11.0615 65.758 11.204 65.8767 11.3701C65.9954 11.5363 66.0904 11.75 66.1616 11.9636C66.2328 12.201 66.2565 12.4384 66.2803 12.6758C66.304 13.293 66.2803 13.8627 66.1141 14.4324" fill="#151515"/>
  <path d="M81.6858 8.59271C81.306 8.52149 80.9024 8.45028 80.4989 8.4028C80.0953 8.35532 79.6918 8.30785 79.2645 8.26037C78.8372 8.23663 78.4336 8.21289 78.0301 8.21289C76.9618 8.21289 76.0597 8.35532 75.2764 8.61645C74.5167 8.87758 73.852 9.23366 73.3298 9.66096C72.8075 10.0883 72.3802 10.5868 72.0479 11.109C71.7155 11.655 71.4782 12.201 71.312 12.7233C71.1458 13.2692 71.0271 13.7915 70.9796 14.29C70.9322 14.7885 70.9084 15.2158 70.9322 15.5482C70.9796 16.2128 71.0746 16.8301 71.2645 17.3523C71.4544 17.8746 71.6918 18.3256 72.0004 18.7054C72.309 19.0852 72.6888 19.3464 73.1161 19.56C73.5434 19.7499 74.0419 19.8449 74.5879 19.8449C75.039 19.8449 75.4188 19.7737 75.7511 19.655C76.0835 19.5363 76.3683 19.3701 76.6532 19.1802C76.9143 18.9903 77.1517 18.7529 77.3654 18.4918C77.579 18.2306 77.7689 17.9695 77.9588 17.6846H78.0063C78.0063 17.6846 78.0063 17.9458 78.0063 18.1119C78.0063 18.2781 78.0063 18.4443 78.0063 18.6342C78.0063 18.8004 78.0063 18.9903 78.0063 19.1565C78.0063 19.3226 78.0063 19.4651 78.0063 19.5837H81.4722C81.4722 19.3464 81.4722 19.0615 81.4722 18.7292C81.4722 18.3968 81.4722 18.0645 81.5197 17.7084C81.5197 17.376 81.5671 17.0437 81.5909 16.7114C81.6146 16.4028 81.6621 16.1179 81.6858 15.9042L82.7778 8.78262C82.4455 8.7114 82.0894 8.64019 81.7096 8.56898M78.5998 13.3167C78.5286 13.7678 78.4099 14.2425 78.2912 14.6936C78.1487 15.1683 77.9826 15.5719 77.7689 15.9517C77.5553 16.3315 77.2942 16.6401 76.9856 16.8775C76.6769 17.1149 76.3209 17.2336 75.9173 17.2336C75.7037 17.2336 75.49 17.1861 75.3238 17.0912C75.1577 16.9962 74.9915 16.8775 74.8728 16.7114C74.7541 16.5452 74.6591 16.3553 74.5879 16.1179C74.5167 15.8805 74.493 15.6431 74.4692 15.382C74.4692 15.1209 74.4692 14.836 74.4692 14.5037C74.493 14.1713 74.5642 13.839 74.6591 13.4829C74.7541 13.1268 74.8728 12.7945 75.039 12.4384C75.2051 12.106 75.4188 11.7974 75.6799 11.5363C75.941 11.2752 76.2496 11.0615 76.6295 10.8716C76.9855 10.7055 77.4366 10.6342 77.9351 10.6342C78.125 10.6342 78.3149 10.6342 78.5048 10.658C78.7185 10.658 78.8846 10.7055 79.0508 10.7292L78.6235 13.3167H78.5998Z" fill="#151515"/>
  <path d="M91.7007 8.21289C91.0597 8.21289 90.49 8.42654 90.0152 8.85384C89.5404 9.28113 89.1131 9.89834 88.7096 10.7292H88.6621C88.6621 10.7292 88.6621 10.5156 88.6858 10.3494C88.6858 10.1832 88.7096 9.9933 88.7333 9.80339C88.7333 9.58974 88.757 9.37609 88.7808 9.16244C88.7808 8.92506 88.8045 8.71141 88.8045 8.49776H85.4099C85.4099 8.75888 85.3861 9.06749 85.3387 9.39983C85.3149 9.73217 85.2675 10.0645 85.2437 10.4206C85.1962 10.7767 85.1488 11.1328 85.1013 11.4888C85.0538 11.8449 85.0063 12.201 84.9588 12.5333L83.7957 19.6075H87.2615L87.9737 14.931C88.0449 14.4324 88.1636 13.9814 88.3298 13.5304C88.4722 13.1031 88.7333 12.6995 88.9944 12.3909C89.2318 12.0586 89.5167 11.7974 89.849 11.6075C90.1814 11.4176 90.5612 11.3227 90.9885 11.3227C91.2021 11.3227 91.4158 11.3464 91.6532 11.4176C91.8906 11.4888 92.1042 11.5601 92.2704 11.6313L92.7452 8.35533C92.6027 8.35533 92.4366 8.30785 92.2467 8.26037C92.0567 8.21289 91.8668 8.21289 91.7007 8.21289Z" fill="#151515"/>
  <path d="M101.483 8.49747L97.3525 13.3164H97.3051L98.7531 3.15625H95.2873L92.8896 19.6072H96.3318L97.2101 13.8387H97.2576L100.035 19.6072H103.857L100.652 13.72L105.542 8.49747H101.483Z" fill="#151515"/>
</svg>